<svg xmlns="http://www.w3.org/2000/svg" xmlns:xlink="http://www.w3.org/1999/xlink" preserveAspectRatio="xMidYMid meet" version="1.0" viewBox="6.0 2.0 36.0 40.0" zoomAndPan="magnify" style="fill: rgb(221, 167, 139);" original_string_length="530" width="55.37026386804615px" height="61.522515408940166px"><g id="__id14_sl1jb07qcy"><path d="M33.06 22.12l-2.12-2.12-9.76 9.76-4.24-4.24-2.12 2.12 6.36 6.36 11.88-11.88zm4.94-16.12h-2v-4h-4v4h-16v-4h-4v4h-2c-2.21 0-3.98 1.79-3.98 4l-.02 28c0 2.21 1.79 4 4 4h28c2.21 0 4-1.79 4-4v-28c0-2.21-1.79-4-4-4zm0 32h-28v-22h28v22z" style="fill: inherit;"/></g></svg>